<svg xmlns="http://www.w3.org/2000/svg" viewBox="0 0 46.9 46.9"><defs><style>.cls-1{fill:none;stroke:#fff;stroke-miterlimit:10;stroke-width:0.43px;}.cls-2{fill:#057f2a;fill-rule:evenodd;}</style></defs><g id="Layer_2" data-name="Layer 2"><g id="OBJECTS"><path class="cls-1" d="M23.45,46.68h0A23.23,23.23,0,0,1,.22,23.45h0A23.23,23.23,0,0,1,23.45.22h0A23.23,23.23,0,0,1,46.68,23.45h0A23.23,23.23,0,0,1,23.45,46.68Z"/><path class="cls-2" d="M37.5,22.32a13.45,13.45,0,0,0-26.88-.24c0,.19,0,.39,0,.58a13.28,13.28,0,0,0,1.93,6.9l-2.43,7.16,7.45-2.37a13.47,13.47,0,0,0,20-11.69C37.51,22.55,37.51,22.44,37.5,22.32ZM24.06,33.88A11.31,11.31,0,0,1,17.84,32L13.5,33.41l1.41-4.17a11.06,11.06,0,0,1-2.16-6.58,10,10,0,0,1,.06-1.09,11.31,11.31,0,0,1,22.52.22,8.44,8.44,0,0,1,0,.87A11.28,11.28,0,0,1,24.06,33.88Z"/><path class="cls-2" d="M30.23,25.36c-.34-.17-2-1-2.26-1.07s-.52-.16-.74.17-.86,1.06-1.05,1.28-.38.24-.71.08a9.12,9.12,0,0,1-2.66-1.63A9.83,9.83,0,0,1,21,21.93c-.19-.32,0-.5.15-.66s.32-.39.49-.58a.61.61,0,0,0,.12-.16,2,2,0,0,0,.21-.39.57.57,0,0,0,0-.57c-.09-.16-.75-1.77-1-2.43s-.55-.54-.75-.54-.41,0-.63,0a1.2,1.2,0,0,0-.88.41,3.65,3.65,0,0,0-1.15,2.73,4.08,4.08,0,0,0,.17,1.11,7.12,7.12,0,0,0,1.18,2.27c.16.22,2.28,3.63,5.63,4.94s3.35.87,4,.82a3.29,3.29,0,0,0,2.22-1.56,2.7,2.7,0,0,0,.2-1.55C30.77,25.6,30.55,25.52,30.23,25.36Z"/></g></g></svg>